<svg xmlns="http://www.w3.org/2000/svg" viewBox="145 99 312 322" width="100%">
  <path d="M288 116 A135 135 0 0 0 288 384" stroke="#2b3a5b" stroke-width="34" fill="none" stroke-linecap="round"/>
  <path d="M312 116 A135 135 0 0 1 312 384" stroke="#c2a07f" stroke-width="34" fill="none" stroke-linecap="round"/>
  <g stroke="#2b3a5b" stroke-width="4.5" fill="none" stroke-linecap="round" stroke-linejoin="round">
    <path d="M252 178 C249 143 297 132 321 159 C339 178 334 207 315 220 C300 231 271 232 258 217 C249 206 250 191 252 178 Z"/>
    <path d="M297 194 q11 7 21 1"/>
    <path d="M256 197 q-11 3 -6 15"/>
    <path d="M315 220 C358 242 369 288 337 319 C315 339 285 338 270 322"/>
  </g>
  <path d="M300 360 C291 341 259 346 259 373 C259 398 300 416 300 416 C300 416 341 398 341 373 C341 346 309 341 300 360 Z" fill="#c2a07f"/>
</svg>
